<?xml version="1.0" encoding="utf-8"?>
<!-- Generator: Adobe Illustrator 14.0.0, SVG Export Plug-In . SVG Version: 6.00 Build 43363)  -->
<!DOCTYPE svg PUBLIC "-//W3C//DTD SVG 1.1//EN" "http://www.w3.org/Graphics/SVG/1.1/DTD/svg11.dtd">
<svg version="1.1" id="Layer_2" xmlns="http://www.w3.org/2000/svg" xmlns:xlink="http://www.w3.org/1999/xlink" x="0px" y="0px"
	 width="504px" height="504px" viewBox="0 0 504 504" enable-background="new 0 0 504 504" xml:space="preserve">
<path d="M253.195,267.114c-40.65,61.789-148.78,38.211-148.78,38.211c-70.731-21.139-57.724-66.667-57.724-66.667
	c30.081-45.528,56.911-10.569,56.911-10.569c4.879,9.756-4.879,9.756-4.879,9.756c-30.082-14.634-24.39,8.943-24.39,8.943
	c25.203,38.211,86.991-17.073,86.991-17.073c60.162-41.463,93.173,7.784,93.173,7.784l3.627-2.906c0,0,30.082-46.341,90.244-4.878
	c0,0,61.787,55.285,86.99,17.073c0,0,5.693-23.577-24.389-8.943c0,0-9.758,0-4.879-9.756c0,0,26.83-34.958,56.91,10.569
	c0,0,13.008,45.528-57.723,66.667c0,0-108.131,23.578-148.781-38.211"/>
</svg>
